# xmcd
#
# Track frame offsets:
#	150
#	16823
#	31699
#	59148
#	72059
#	87360
#	101253
#	114324
#	132599
#	149091
#	164991
#	178940
#	205309
#	220345
#	235374
#
# Disc length: 3408 seconds
#
# Revision: 0
# Processed by: cddbd v1.5.1PL0 Copyright (c) Steve Scherf et al.
# Submitted via: dBpowerAMP V4.0
#
DISCID=e50d4e0f
DTITLE=Martin And his Rhythm Kings - The right Way
DYEAR=1900
DGENRE=blues
TTITLE0=Track01 Comin´Home
TTITLE1=Track02 Thunderbird
TTITLE2=Track03 The Right Way
TTITLE3=Track04 Strolling With Bone
TTITLE4=Track05 C-53 Blues
TTITLE5=Track06 Sen-Sa-Shun
TTITLE6=Track07 The Loop
TTITLE7=Track08 Hug and Squeeze You
TTITLE8=Track09 Gee I wish
TTITLE9=Track10 T-Bone Shuffle
TTITLE10=Track11 The Stumble
TTITLE11=Track12 Texas Flood
TTITLE12=Track13 Rock This House
TTITLE13=Track14 Don´t Loose Your Cool
TTITLE14=Track15 Wait On Time
EXTD=
EXTT0=
EXTT1=
EXTT2=
EXTT3=
EXTT4=
EXTT5=
EXTT6=
EXTT7=
EXTT8=
EXTT9=
EXTT10=
EXTT11=
EXTT12=
EXTT13=
EXTT14=
PLAYORDER=
